<svg width="256" height="256" viewBox="0 0 1000 1000" xmlns="http://www.w3.org/2000/svg"><rect x="0" y="0" width="1000" height="1000" rx="8" fill="none"/><svg xmlns="http://www.w3.org/2000/svg" viewBox="0 0 1000 1000" fill="#ffffff" x="0" y="0" width="1000" height="1000"><path fill="#ffffff" d="m746 641l254 255l-105 105l-254-254q-106 72-232 72q-169 0-289-120T0 410t120-289T409 1t289 120t120 289q0 127-72 231zm-65-231q0-113-79.5-193T409 137t-193 80t-80 193t80 192.5T409 682t192.5-79.5T681 410z"/></svg></svg>